<svg xmlns="http://www.w3.org/2000/svg" xmlns:xlink="http://www.w3.org/1999/xlink" width="500" zoomAndPan="magnify" viewBox="0 0 375 374.999991" height="500" preserveAspectRatio="xMidYMid meet" version="1.0"><defs><g/><clipPath id="8d1fb98017"><path d="M 31.199219 151.328125 L 93.449219 151.328125 L 93.449219 196.328125 L 31.199219 196.328125 Z M 31.199219 151.328125 " clip-rule="nonzero"/></clipPath></defs><g clip-path="url(#8d1fb98017)"><path fill="#965b4c" d="M 92.117188 196.324219 L 32.488281 196.324219 C 31.789062 196.324219 31.199219 195.734375 31.199219 195.035156 C 31.199219 194.335938 31.789062 193.746094 32.488281 193.746094 L 40.558594 193.746094 C 37.257812 189.179688 35.519531 183.800781 35.519531 178.128906 C 35.519531 163.367188 47.519531 151.34375 62.300781 151.34375 C 77.085938 151.34375 89.085938 163.347656 89.085938 178.128906 C 89.085938 183.800781 87.347656 189.179688 84.046875 193.746094 L 92.117188 193.746094 C 92.816406 193.746094 93.402344 194.335938 93.402344 195.035156 C 93.402344 195.757812 92.816406 196.324219 92.117188 196.324219 Z M 32.488281 194.695312 C 32.285156 194.695312 32.128906 194.855469 32.128906 195.058594 C 32.128906 195.261719 32.285156 195.417969 32.488281 195.417969 L 92.09375 195.417969 C 92.296875 195.417969 92.453125 195.261719 92.453125 195.058594 C 92.453125 194.855469 92.296875 194.695312 92.09375 194.695312 L 83.097656 194.695312 C 82.917969 194.695312 82.757812 194.605469 82.691406 194.449219 C 82.621094 194.289062 82.621094 194.109375 82.734375 193.949219 C 86.261719 189.386719 88.136719 183.9375 88.136719 178.152344 C 88.136719 163.890625 76.542969 152.292969 62.28125 152.292969 C 48.015625 152.292969 36.421875 163.890625 36.421875 178.152344 C 36.421875 183.914062 38.296875 189.386719 41.824219 193.949219 C 41.9375 194.085938 41.960938 194.289062 41.871094 194.449219 C 41.800781 194.605469 41.621094 194.695312 41.460938 194.695312 Z M 80.996094 194.695312 L 43.609375 194.695312 C 43.472656 194.695312 43.339844 194.628906 43.25 194.539062 C 39.316406 189.972656 37.167969 184.164062 37.167969 178.152344 C 37.167969 164.296875 48.445312 153.015625 62.300781 153.015625 C 76.15625 153.015625 87.4375 164.296875 87.4375 178.152344 C 87.4375 184.164062 85.265625 189.972656 81.355469 194.539062 C 81.265625 194.628906 81.128906 194.695312 80.996094 194.695312 Z M 43.835938 193.769531 L 80.792969 193.769531 C 84.476562 189.40625 86.511719 183.871094 86.511719 178.152344 C 86.511719 164.816406 75.660156 153.945312 62.300781 153.945312 C 48.945312 153.945312 38.09375 164.792969 38.09375 178.152344 C 38.09375 183.871094 40.128906 189.40625 43.835938 193.769531 Z M 43.835938 193.769531 " fill-opacity="1" fill-rule="nonzero"/></g><path fill="#965b4c" d="M 68.835938 187.058594 L 59.75 187.058594 C 58.144531 187.058594 56.808594 185.746094 56.808594 184.117188 C 56.808594 182.492188 58.121094 181.179688 59.75 181.179688 L 68.835938 181.179688 C 70.441406 181.179688 71.773438 182.492188 71.773438 184.117188 C 71.773438 185.746094 70.441406 187.058594 68.835938 187.058594 Z M 59.75 182.128906 C 58.640625 182.128906 57.738281 183.035156 57.738281 184.140625 C 57.738281 185.25 58.640625 186.152344 59.75 186.152344 L 68.835938 186.152344 C 69.941406 186.152344 70.847656 185.25 70.847656 184.140625 C 70.847656 183.035156 69.941406 182.128906 68.835938 182.128906 Z M 59.75 182.128906 " fill-opacity="1" fill-rule="nonzero"/><path fill="#965b4c" d="M 57.941406 194.675781 C 57.804688 194.675781 57.667969 194.652344 57.535156 194.605469 C 57.21875 194.492188 56.945312 194.265625 56.789062 193.949219 C 56.628906 193.632812 56.605469 193.296875 56.71875 192.980469 L 58.910156 186.425781 C 58.980469 186.199219 59.207031 186.085938 59.433594 186.109375 C 59.523438 186.128906 59.636719 186.128906 59.75 186.128906 L 61.082031 186.128906 C 61.238281 186.128906 61.375 186.199219 61.464844 186.332031 C 61.554688 186.445312 61.578125 186.605469 61.535156 186.742188 L 59.183594 193.792969 C 59.003906 194.3125 58.503906 194.675781 57.941406 194.675781 Z M 59.679688 187.058594 L 57.601562 193.273438 C 57.578125 193.363281 57.578125 193.453125 57.625 193.542969 C 57.667969 193.632812 57.738281 193.703125 57.828125 193.722656 C 58.007812 193.792969 58.210938 193.679688 58.277344 193.5 L 60.425781 187.058594 L 59.726562 187.058594 C 59.726562 187.058594 59.703125 187.058594 59.679688 187.058594 Z M 59.679688 187.058594 " fill-opacity="1" fill-rule="nonzero"/><path fill="#965b4c" d="M 70.621094 194.675781 C 70.078125 194.675781 69.582031 194.3125 69.398438 193.792969 L 67.050781 186.742188 C 67.003906 186.605469 67.027344 186.445312 67.117188 186.332031 C 67.207031 186.21875 67.34375 186.128906 67.5 186.128906 L 68.835938 186.128906 C 68.949219 186.128906 69.039062 186.128906 69.152344 186.109375 C 69.378906 186.0625 69.601562 186.199219 69.671875 186.425781 L 71.863281 192.980469 C 71.976562 193.296875 71.953125 193.65625 71.796875 193.949219 C 71.636719 194.265625 71.390625 194.492188 71.050781 194.605469 C 70.890625 194.652344 70.757812 194.675781 70.621094 194.675781 Z M 68.132812 187.058594 L 70.28125 193.5 C 70.347656 193.679688 70.550781 193.792969 70.734375 193.722656 C 70.824219 193.703125 70.890625 193.632812 70.9375 193.542969 C 70.980469 193.453125 70.980469 193.363281 70.960938 193.273438 L 68.878906 187.058594 C 68.855469 187.058594 68.835938 187.058594 68.8125 187.058594 Z M 68.132812 187.058594 " fill-opacity="1" fill-rule="nonzero"/><path fill="#965b4c" d="M 70.125 182.492188 C 70.03125 182.492188 69.964844 182.46875 69.875 182.421875 C 69.558594 182.242188 69.195312 182.128906 68.835938 182.128906 L 65.535156 182.128906 C 65.332031 182.128906 65.152344 181.992188 65.082031 181.789062 L 62.097656 170.375 C 62.054688 170.238281 62.097656 170.082031 62.191406 169.96875 C 62.28125 169.855469 62.414062 169.789062 62.550781 169.789062 L 66.144531 169.789062 C 66.347656 169.789062 66.550781 169.921875 66.597656 170.128906 C 66.621094 170.195312 66.84375 170.941406 67.863281 170.941406 C 68.925781 170.941406 69.128906 170.128906 69.128906 170.128906 C 69.171875 169.921875 69.378906 169.789062 69.582031 169.789062 L 73.175781 169.789062 C 73.308594 169.789062 73.445312 169.855469 73.535156 169.96875 C 73.625 170.082031 73.648438 170.238281 73.625 170.375 L 70.550781 182.128906 C 70.507812 182.265625 70.417969 182.378906 70.28125 182.445312 C 70.234375 182.46875 70.167969 182.492188 70.125 182.492188 Z M 65.894531 181.203125 L 68.835938 181.203125 C 69.171875 181.203125 69.488281 181.246094 69.808594 181.359375 L 72.585938 170.738281 L 69.898438 170.738281 C 69.625 171.257812 68.992188 171.914062 67.863281 171.914062 C 66.734375 171.914062 66.101562 171.28125 65.828125 170.738281 L 63.140625 170.738281 Z M 65.894531 181.203125 " fill-opacity="1" fill-rule="nonzero"/><path fill="#965b4c" d="M 52.652344 189.859375 L 40.355469 189.859375 C 40.175781 189.859375 40.015625 189.769531 39.949219 189.609375 C 38.117188 186.039062 37.191406 182.195312 37.191406 178.152344 C 37.191406 177.902344 37.394531 177.675781 37.664062 177.675781 L 53.917969 177.675781 C 54.164062 177.675781 54.390625 177.878906 54.390625 178.152344 L 54.390625 188.140625 C 54.367188 189.089844 53.601562 189.859375 52.652344 189.859375 Z M 40.625 188.910156 L 52.652344 188.910156 C 53.082031 188.910156 53.441406 188.570312 53.441406 188.117188 L 53.441406 178.582031 L 38.117188 178.582031 C 38.164062 182.242188 39.023438 185.699219 40.625 188.910156 Z M 40.625 188.910156 " fill-opacity="1" fill-rule="nonzero"/><path fill="#965b4c" d="M 48.445312 181.769531 L 37.9375 181.769531 C 37.6875 181.769531 37.460938 181.5625 37.460938 181.292969 L 37.460938 178.152344 C 37.460938 177.902344 37.664062 177.675781 37.9375 177.675781 L 48.445312 177.675781 C 48.695312 177.675781 48.921875 177.878906 48.921875 178.152344 L 48.921875 181.292969 C 48.921875 181.5625 48.695312 181.769531 48.445312 181.769531 Z M 38.410156 180.839844 L 47.996094 180.839844 L 47.996094 178.625 L 38.410156 178.625 Z M 38.410156 180.839844 " fill-opacity="1" fill-rule="nonzero"/><path fill="#965b4c" d="M 43.203125 180.027344 C 42.726562 180.027344 42.367188 179.644531 42.367188 179.191406 C 42.367188 178.714844 42.75 178.355469 43.203125 178.355469 C 43.679688 178.355469 44.039062 178.738281 44.039062 179.191406 C 44.039062 179.644531 43.65625 180.027344 43.203125 180.027344 Z M 43.203125 179.078125 C 43.15625 179.078125 43.113281 179.125 43.113281 179.167969 C 43.113281 179.214844 43.15625 179.257812 43.203125 179.257812 C 43.25 179.257812 43.292969 179.214844 43.292969 179.167969 C 43.292969 179.125 43.25 179.078125 43.203125 179.078125 Z M 43.203125 179.078125 " fill-opacity="1" fill-rule="nonzero"/><path fill="#965b4c" d="M 46.050781 178.601562 L 40.355469 178.601562 C 40.105469 178.601562 39.878906 178.398438 39.878906 178.128906 L 39.878906 178.0625 C 39.878906 176.230469 41.371094 174.761719 43.179688 174.761719 C 45.011719 174.761719 46.480469 176.253906 46.480469 178.0625 L 46.480469 178.152344 C 46.503906 178.398438 46.300781 178.601562 46.050781 178.601562 Z M 40.851562 177.675781 L 45.554688 177.675781 C 45.371094 176.546875 44.378906 175.6875 43.203125 175.6875 C 42.003906 175.6875 41.03125 176.546875 40.851562 177.675781 Z M 40.851562 177.675781 " fill-opacity="1" fill-rule="nonzero"/><path fill="#965b4c" d="M 47.179688 170.21875 C 47.066406 170.21875 46.933594 170.171875 46.84375 170.082031 L 46.773438 170.015625 C 45.484375 168.726562 45.484375 166.625 46.773438 165.335938 C 47.40625 164.703125 48.222656 164.363281 49.101562 164.363281 C 49.984375 164.363281 50.820312 164.703125 51.429688 165.335938 L 51.5 165.402344 C 51.679688 165.585938 51.679688 165.878906 51.5 166.058594 L 47.476562 170.082031 C 47.429688 170.171875 47.292969 170.21875 47.179688 170.21875 Z M 49.148438 165.3125 C 48.515625 165.3125 47.90625 165.5625 47.476562 166.011719 C 46.640625 166.851562 46.546875 168.160156 47.226562 169.085938 L 50.550781 165.765625 C 50.121094 165.449219 49.644531 165.3125 49.148438 165.3125 Z M 49.148438 165.3125 " fill-opacity="1" fill-rule="nonzero"/><path fill="#965b4c" d="M 50.640625 169.652344 C 50.527344 169.652344 50.390625 169.605469 50.300781 169.515625 L 49.464844 168.679688 C 49.285156 168.5 49.285156 168.207031 49.464844 168.023438 C 49.644531 167.84375 49.9375 167.84375 50.121094 168.023438 L 50.957031 168.863281 C 51.136719 169.042969 51.136719 169.335938 50.957031 169.515625 C 50.886719 169.605469 50.773438 169.652344 50.640625 169.652344 Z M 50.640625 169.652344 " fill-opacity="1" fill-rule="nonzero"/><path fill="#965b4c" d="M 48.808594 171.484375 C 48.628906 171.484375 48.445312 171.371094 48.378906 171.191406 L 47.90625 169.992188 C 47.8125 169.765625 47.925781 169.496094 48.152344 169.382812 C 48.378906 169.289062 48.648438 169.402344 48.761719 169.628906 L 49.238281 170.828125 C 49.328125 171.054688 49.214844 171.324219 48.988281 171.4375 C 48.921875 171.484375 48.875 171.484375 48.808594 171.484375 Z M 48.808594 171.484375 " fill-opacity="1" fill-rule="nonzero"/><path fill="#965b4c" d="M 52.46875 167.820312 C 52.402344 167.820312 52.355469 167.820312 52.289062 167.777344 L 51.089844 167.300781 C 50.84375 167.210938 50.730469 166.941406 50.84375 166.691406 C 50.933594 166.441406 51.203125 166.328125 51.453125 166.441406 L 52.652344 166.917969 C 52.898438 167.007812 53.011719 167.277344 52.898438 167.527344 C 52.832031 167.707031 52.652344 167.820312 52.46875 167.820312 Z M 52.46875 167.820312 " fill-opacity="1" fill-rule="nonzero"/><path fill="#965b4c" d="M 43.203125 172.027344 C 42.480469 172.027344 41.890625 171.4375 41.890625 170.714844 C 41.890625 169.992188 42.480469 169.402344 43.203125 169.402344 C 43.925781 169.402344 44.515625 169.992188 44.515625 170.714844 C 44.515625 171.4375 43.925781 172.027344 43.203125 172.027344 Z M 43.203125 170.351562 C 43 170.351562 42.820312 170.535156 42.820312 170.738281 C 42.820312 170.941406 43 171.121094 43.203125 171.121094 C 43.40625 171.121094 43.585938 170.941406 43.585938 170.738281 C 43.585938 170.511719 43.40625 170.351562 43.203125 170.351562 Z M 43.203125 170.351562 " fill-opacity="1" fill-rule="nonzero"/><path fill="#965b4c" d="M 43.203125 170.351562 C 43.089844 170.351562 42.976562 170.308594 42.886719 170.21875 C 42.707031 170.035156 42.683594 169.742188 42.863281 169.5625 L 46.796875 165.359375 C 46.976562 165.175781 47.273438 165.15625 47.453125 165.335938 C 47.632812 165.515625 47.65625 165.808594 47.476562 165.992188 L 43.542969 170.195312 C 43.453125 170.285156 43.316406 170.351562 43.203125 170.351562 Z M 43.203125 170.351562 " fill-opacity="1" fill-rule="nonzero"/><path fill="#965b4c" d="M 43.203125 175.6875 C 42.953125 175.6875 42.726562 175.484375 42.726562 175.210938 L 42.726562 171.550781 C 42.726562 171.300781 42.933594 171.078125 43.203125 171.078125 C 43.453125 171.078125 43.679688 171.28125 43.679688 171.550781 L 43.679688 175.210938 C 43.65625 175.484375 43.453125 175.6875 43.203125 175.6875 Z M 43.203125 175.6875 " fill-opacity="1" fill-rule="nonzero"/><path fill="#965b4c" d="M 51.339844 194.675781 C 51.160156 194.675781 51 194.582031 50.910156 194.402344 L 48.605469 189.589844 C 48.539062 189.453125 48.539062 189.273438 48.628906 189.136719 C 48.71875 189 48.855469 188.910156 49.011719 188.910156 L 51.316406 188.910156 C 51.566406 188.910156 51.792969 189.113281 51.792969 189.386719 L 51.792969 194.199219 C 51.792969 194.425781 51.632812 194.605469 51.429688 194.652344 C 51.40625 194.675781 51.363281 194.675781 51.339844 194.675781 Z M 49.757812 189.859375 L 50.867188 192.164062 L 50.867188 189.859375 Z M 49.757812 189.859375 " fill-opacity="1" fill-rule="nonzero"/><path fill="#965b4c" d="M 86.488281 173.742188 L 75.796875 173.742188 C 75.097656 173.742188 74.507812 173.15625 74.507812 172.457031 L 74.507812 156.996094 C 74.507812 156.835938 74.597656 156.679688 74.734375 156.589844 C 74.871094 156.496094 75.050781 156.496094 75.207031 156.589844 C 75.773438 156.925781 76.339844 157.289062 76.882812 157.695312 C 76.996094 157.785156 77.085938 157.921875 77.085938 158.078125 L 77.085938 171.191406 L 86.101562 171.191406 C 86.308594 171.191406 86.488281 171.324219 86.554688 171.527344 C 86.714844 172.070312 86.847656 172.636719 86.960938 173.203125 C 86.984375 173.335938 86.960938 173.472656 86.871094 173.585938 C 86.757812 173.675781 86.625 173.742188 86.488281 173.742188 Z M 75.433594 157.832031 L 75.433594 172.457031 C 75.433594 172.660156 75.59375 172.816406 75.796875 172.816406 L 85.898438 172.816406 C 85.855469 172.566406 85.785156 172.34375 85.71875 172.09375 L 76.632812 172.09375 C 76.382812 172.09375 76.15625 171.890625 76.15625 171.617188 L 76.15625 158.304688 C 75.933594 158.148438 75.683594 157.988281 75.433594 157.832031 Z M 75.433594 157.832031 " fill-opacity="1" fill-rule="nonzero"/><g fill="#763626" fill-opacity="1"><g transform="translate(93.376899, 182.039155)"><g><path d="M -0.261719 0 L 1.484375 0 L 1.484375 -0.199219 C 0.960938 -0.308594 0.898438 -0.820312 1.300781 -1.824219 L 2.210938 -4.085938 L 6.578125 -4.085938 L 7.519531 -1.808594 C 8.015625 -0.648438 8.140625 -0.339844 7.660156 -0.199219 L 7.660156 0 L 10.058594 0 L 10.058594 -0.199219 C 9.734375 -0.339844 9.363281 -0.648438 8.882812 -1.808594 L 5.074219 -10.957031 L 3.914062 -10.429688 L 4.054688 -10.105469 C 4.179688 -9.855469 4.195312 -9.65625 4.085938 -9.378906 L 1.035156 -1.824219 C 0.558594 -0.648438 0.171875 -0.339844 -0.261719 -0.199219 Z M 2.304688 -4.316406 L 4.363281 -9.410156 L 6.484375 -4.316406 Z M 2.304688 -4.316406 "/></g></g></g><g fill="#763626" fill-opacity="1"><g transform="translate(103.294635, 182.039155)"><g><path d="M 0.789062 0 L 7.984375 0 L 8.09375 -1.75 L 7.921875 -1.78125 C 7.382812 -0.617188 6.699219 -0.246094 5.214844 -0.246094 L 3.375 -0.246094 C 2.925781 -0.246094 2.675781 -0.496094 2.675781 -0.945312 L 2.675781 -8.867188 C 2.675781 -10.136719 2.816406 -10.492188 3.296875 -10.628906 L 3.296875 -10.832031 L 0.789062 -10.832031 L 0.789062 -10.628906 C 1.253906 -10.492188 1.40625 -10.136719 1.40625 -8.867188 L 1.40625 -1.964844 C 1.40625 -0.695312 1.253906 -0.339844 0.789062 -0.199219 Z M 0.789062 0 "/></g></g></g><g fill="#763626" fill-opacity="1"><g transform="translate(111.696094, 182.039155)"><g><path d="M 0.773438 0 L 2.722656 0 L 2.722656 -0.199219 C 2.042969 -0.386719 1.671875 -0.820312 1.671875 -2.585938 L 1.671875 -9.453125 L 5.632812 -2.941406 L 5.925781 -2.941406 L 9.855469 -9.578125 L 9.855469 -1.964844 C 9.855469 -0.695312 9.703125 -0.339844 9.238281 -0.199219 L 9.238281 0 L 11.746094 0 L 11.746094 -0.199219 C 11.265625 -0.339844 11.125 -0.695312 11.125 -1.964844 L 11.125 -8.246094 C 11.125 -10.011719 11.449219 -10.445312 12.070312 -10.628906 L 12.070312 -10.832031 L 10.320312 -10.832031 L 6.359375 -4.164062 L 2.320312 -10.832031 L 0.449219 -10.832031 L 0.449219 -10.628906 C 1.066406 -10.445312 1.394531 -10.011719 1.394531 -8.246094 L 1.394531 -1.964844 C 1.394531 -0.695312 1.253906 -0.339844 0.773438 -0.199219 Z M 0.773438 0 "/></g></g></g><g fill="#763626" fill-opacity="1"><g transform="translate(124.553573, 182.039155)"><g><path d="M -0.261719 0 L 1.484375 0 L 1.484375 -0.199219 C 0.960938 -0.308594 0.898438 -0.820312 1.300781 -1.824219 L 2.210938 -4.085938 L 6.578125 -4.085938 L 7.519531 -1.808594 C 8.015625 -0.648438 8.140625 -0.339844 7.660156 -0.199219 L 7.660156 0 L 10.058594 0 L 10.058594 -0.199219 C 9.734375 -0.339844 9.363281 -0.648438 8.882812 -1.808594 L 5.074219 -10.957031 L 3.914062 -10.429688 L 4.054688 -10.105469 C 4.179688 -9.855469 4.195312 -9.65625 4.085938 -9.378906 L 1.035156 -1.824219 C 0.558594 -0.648438 0.171875 -0.339844 -0.261719 -0.199219 Z M 2.304688 -4.316406 L 4.363281 -9.410156 L 6.484375 -4.316406 Z M 2.304688 -4.316406 "/></g></g></g><g fill="#763626" fill-opacity="1"><g transform="translate(134.471309, 182.039155)"><g/></g></g><g fill="#763626" fill-opacity="1"><g transform="translate(137.720487, 182.039155)"><g><path d="M 0.789062 0 L 4.84375 0 C 8.246094 0 10.445312 -2.351562 10.429688 -5.617188 C 10.414062 -8.125 8.742188 -10.832031 4.488281 -10.832031 L 0.789062 -10.832031 L 0.789062 -10.628906 C 1.253906 -10.492188 1.40625 -10.136719 1.40625 -8.867188 L 1.40625 -1.964844 C 1.40625 -0.695312 1.253906 -0.339844 0.789062 -0.199219 Z M 2.675781 -1.363281 L 2.675781 -10.601562 L 3.730469 -10.601562 C 7.179688 -10.601562 9.019531 -8.09375 9.019531 -5 C 9.019531 -1.765625 7.519531 -0.230469 4.8125 -0.230469 L 3.683594 -0.230469 C 2.832031 -0.230469 2.675781 -0.632812 2.675781 -1.363281 Z M 2.675781 -1.363281 "/></g></g></g><g fill="#763626" fill-opacity="1"><g transform="translate(148.937901, 182.039155)"><g><path d="M 0.789062 0 L 8.417969 0 L 8.542969 -2.058594 L 8.371094 -2.089844 C 7.816406 -0.648438 6.871094 -0.230469 5.386719 -0.230469 L 3.375 -0.230469 C 2.925781 -0.230469 2.675781 -0.480469 2.675781 -0.929688 L 2.675781 -5.679688 L 4.65625 -5.679688 C 6.421875 -5.679688 6.871094 -5.324219 7.054688 -4.625 L 7.242188 -4.625 L 7.242188 -6.964844 L 7.054688 -6.964844 C 6.871094 -6.265625 6.421875 -5.910156 4.65625 -5.910156 L 2.675781 -5.910156 L 2.675781 -10.601562 L 4.953125 -10.601562 C 6.53125 -10.601562 7.441406 -10.136719 7.984375 -8.773438 L 8.15625 -8.820312 L 7.984375 -10.832031 L 0.789062 -10.832031 L 0.789062 -10.628906 C 1.253906 -10.492188 1.40625 -10.136719 1.40625 -8.867188 L 1.40625 -1.964844 C 1.40625 -0.695312 1.253906 -0.339844 0.789062 -0.199219 Z M 0.789062 0 "/></g></g></g><g fill="#763626" fill-opacity="1"><g transform="translate(158.051082, 182.039155)"><g><path d="M 4.410156 0.15625 C 6.234375 0.15625 8.03125 -1.019531 8.03125 -2.957031 C 8.03125 -4.703125 6.421875 -5.386719 4.703125 -6.066406 C 3.390625 -6.609375 1.796875 -7.195312 1.796875 -8.648438 C 1.796875 -9.964844 2.863281 -10.691406 4.117188 -10.691406 C 5.878906 -10.691406 6.964844 -9.734375 7.535156 -8.386719 L 7.691406 -8.433594 L 7.628906 -10.226562 C 7.023438 -10.554688 6.019531 -10.941406 4.609375 -10.941406 C 2.335938 -10.941406 0.835938 -9.796875 0.835938 -7.984375 C 0.835938 -6.34375 1.996094 -5.695312 3.820312 -4.96875 C 5.121094 -4.441406 7.023438 -3.730469 7.023438 -2.183594 C 7.023438 -0.929688 5.957031 -0.125 4.71875 -0.125 C 2.570312 -0.125 1.394531 -1.5 0.789062 -3.125 L 0.617188 -3.09375 L 0.695312 -0.945312 C 1.421875 -0.417969 2.785156 0.15625 4.410156 0.15625 Z M 4.410156 0.15625 "/></g></g></g><g fill="#763626" fill-opacity="1"><g transform="translate(166.576313, 182.039155)"><g><path d="M 0.789062 0 L 3.296875 0 L 3.296875 -0.199219 C 2.816406 -0.339844 2.675781 -0.695312 2.675781 -1.964844 L 2.675781 -8.867188 C 2.675781 -10.136719 2.816406 -10.492188 3.296875 -10.628906 L 3.296875 -10.832031 L 0.789062 -10.832031 L 0.789062 -10.628906 C 1.253906 -10.492188 1.40625 -10.136719 1.40625 -8.867188 L 1.40625 -1.964844 C 1.40625 -0.695312 1.253906 -0.339844 0.789062 -0.199219 Z M 0.789062 0 "/></g></g></g><g fill="#763626" fill-opacity="1"><g transform="translate(170.661, 182.039155)"><g><path d="M 6.5 0.15625 C 8.0625 0.15625 9.855469 -0.648438 10.753906 -1.902344 L 10.753906 -4.8125 L 8.726562 -4.8125 L 8.726562 -4.625 C 9.394531 -4.457031 9.515625 -4.085938 9.515625 -3.125 L 9.53125 -1.546875 C 9.144531 -0.773438 8.140625 -0.15625 6.980469 -0.15625 C 3.851562 -0.15625 2.027344 -3.359375 2.058594 -6.28125 C 2.089844 -9.128906 3.761719 -10.660156 5.988281 -10.660156 C 7.800781 -10.660156 9.222656 -9.609375 9.796875 -8.277344 L 9.949219 -8.308594 L 9.886719 -10.136719 C 9.285156 -10.539062 7.816406 -10.941406 6.4375 -10.941406 C 3.125 -10.941406 0.804688 -8.449219 0.804688 -5.339844 C 0.804688 -2.011719 3.046875 0.15625 6.5 0.15625 Z M 6.5 0.15625 "/></g></g></g><g fill="#763626" fill-opacity="1"><g transform="translate(182.141443, 182.039155)"><g><path d="M 8.960938 0.125 L 9.160156 0.125 L 9.160156 -8.867188 C 9.160156 -10.136719 9.300781 -10.492188 9.78125 -10.628906 L 9.78125 -10.832031 L 7.828125 -10.832031 L 7.828125 -10.628906 C 8.527344 -10.445312 8.898438 -10.011719 8.898438 -8.246094 L 8.898438 -2.074219 L 2.136719 -10.832031 L 0.617188 -10.832031 L 0.617188 -10.628906 C 1.238281 -10.492188 1.421875 -10.136719 1.421875 -8.867188 L 1.421875 -1.964844 C 1.421875 -0.695312 1.269531 -0.339844 0.804688 -0.199219 L 0.804688 0 L 2.738281 0 L 2.738281 -0.199219 C 2.042969 -0.386719 1.671875 -0.820312 1.671875 -2.585938 L 1.671875 -9.363281 Z M 8.960938 0.125 "/></g></g></g></svg>